<?xml version="1.0" standalone="no"?><!DOCTYPE svg PUBLIC "-//W3C//DTD SVG 1.1//EN" "http://www.w3.org/Graphics/SVG/1.1/DTD/svg11.dtd"><svg class="icon" width="200px" height="200.00px" viewBox="0 0 1024 1024" version="1.1" xmlns="http://www.w3.org/2000/svg"><path d="M648.533333 136.533333H204.8c-10.24 0-17.066667-6.826667-17.066667-17.066666S194.56 102.4 204.8 102.4h443.733333c10.24 0 17.066667 6.826667 17.066667 17.066667s-6.826667 17.066667-17.066667 17.066666z"  /><path d="M546.133333 238.933333c-3.413333 0-10.24 0-13.653333-3.413333-6.826667-6.826667-6.826667-17.066667 0-23.893333l88.746667-88.746667L532.48 34.133333c-6.826667-6.826667-6.826667-17.066667 0-23.893333s17.066667-6.826667 23.893333 0l102.4 102.4c6.826667 6.826667 6.826667 17.066667 0 23.893333l-102.4 102.4H546.133333z"  /><path d="M440.32 1024c-61.44 0-122.88-23.893333-167.253333-68.266667l-68.266667-68.266666c-44.373333-44.373333-68.266667-102.4-68.266667-163.84V331.093333C136.533333 300.373333 163.84 273.066667 197.973333 273.066667c44.373333 0 85.333333 34.133333 92.16 78.506666l44.373334 177.493334 290.133333-300.373334c30.72-30.72 81.92-30.72 112.64 0 6.826667 10.24 13.653333 23.893333 17.066667 40.96 30.72-30.72 78.506667-27.306667 109.226666 0 13.653333 13.653333 23.893333 34.133333 23.893334 54.613334s-6.826667 40.96-23.893334 54.613333L703.146667 546.133333c10.24 3.413333 20.48 10.24 30.72 20.48 13.653333 13.653333 23.893333 34.133333 23.893333 54.613334 0 20.48-6.826667 37.546667-20.48 51.2 13.653333 3.413333 30.72 10.24 40.96 20.48 13.653333 13.653333 23.893333 34.133333 23.893333 54.613333 0 20.48-6.826667 40.96-23.893333 54.613333l-180.906667 160.426667c-40.96 40.96-98.986667 61.44-157.013333 61.44zM197.973333 307.2c-17.066667 0-27.306667 10.24-27.306666 23.893333v392.533334c0 51.2 20.48 102.4 58.026666 139.946666l68.266667 68.266667c37.546667 37.546667 88.746667 58.026667 143.36 58.026667 51.2 0 98.986667-17.066667 136.533333-51.2l180.906667-160.426667c6.826667-6.826667 13.653333-17.066667 13.653333-30.72 0-10.24-3.413333-23.893333-13.653333-30.72-17.066667-17.066667-44.373333-17.066667-61.44-3.413333l-13.653333 13.653333c-6.826667 6.826667-17.066667 6.826667-23.893334 0s-6.826667-17.066667 0-23.893333l13.653334-13.653334 3.413333-3.413333 40.96-40.96c6.826667-6.826667 13.653333-20.48 13.653333-30.72s-3.413333-23.893333-13.653333-30.72c-17.066667-17.066667-34.133333-17.066667-51.2 0L614.4 634.88c-6.826667 6.826667-17.066667 6.826667-23.893333 0-6.826667-6.826667-6.826667-17.066667 0-23.893333l256-262.826667c10.24-6.826667 13.653333-20.48 13.653333-30.72s-3.413333-20.48-13.653333-30.72c-17.066667-17.066667-44.373333-17.066667-64.853334 0l-252.586666 262.826667c-6.826667 6.826667-17.066667 6.826667-23.893334 0-6.826667-6.826667-6.826667-17.066667 0-23.893334L716.8 303.786667c10.24-10.24 13.653333-20.48 13.653333-30.72 0-10.24-3.413333-20.48-13.653333-30.72-17.066667-17.066667-47.786667-17.066667-64.853333 0L341.333333 566.613333c-10.24 13.653333-17.066667 13.653333-20.48 13.653334-6.826667 0-10.24-6.826667-13.653333-13.653334l-51.2-208.213333C252.586667 327.68 225.28 307.2 197.973333 307.2z"  /></svg>